<svg width="14" height="14" viewBox="0 0 14 14" fill="none" xmlns="http://www.w3.org/2000/svg">
<path d="M12.4159 4.82729L8.9447 4.3228L7.39296 1.17695C7.35058 1.09082 7.28086 1.0211 7.19473 0.978715C6.97871 0.872076 6.71622 0.960942 6.60821 1.17695L5.05648 4.3228L1.58525 4.82729C1.48954 4.84096 1.40205 4.88607 1.33505 4.95443C1.25407 5.03767 1.20944 5.14966 1.21098 5.26579C1.21251 5.38192 1.26009 5.49269 1.34326 5.57376L3.85474 8.02235L3.26139 11.4799C3.24748 11.5603 3.25638 11.6431 3.28708 11.7187C3.31779 11.7943 3.36907 11.8598 3.43511 11.9078C3.50116 11.9558 3.57932 11.9843 3.66074 11.9901C3.74216 11.9959 3.82357 11.9788 3.89576 11.9406L7.00059 10.3083L10.1054 11.9406C10.1902 11.9858 10.2886 12.0008 10.383 11.9844C10.6208 11.9434 10.7808 11.7178 10.7398 11.4799L10.1464 8.02235L12.6579 5.57376C12.7263 5.50677 12.7714 5.41927 12.7851 5.32357C12.822 5.08431 12.6552 4.86283 12.4159 4.82729Z" fill="#F5A615"/>
</svg>
