<svg width="250" height="31" viewBox="0 0 250 31" fill="none" xmlns="http://www.w3.org/2000/svg">
<g clip-path="url(#clip0_366_349)">
<path fill-rule="evenodd" clip-rule="evenodd" d="M232.607 14.1639H225.683L229.145 6.39723L232.607 14.1639ZM225.057 10.634L219.306 23.541H221.507L223.278 19.5693H235.02L236.791 23.541H238.992L237.611 20.4407C237.57 20.4407 237.534 20.4447 237.494 20.4447C236.651 20.4447 235.968 19.762 235.968 18.9187C235.968 18.485 236.149 18.0914 236.442 17.8144L230.254 3.93149L230.824 2.65444L237.394 17.3927C237.43 17.3927 237.462 17.3927 237.498 17.3927C238.341 17.3927 239.024 18.0754 239.024 18.9187C239.024 19.3484 238.847 19.738 238.562 20.015L240.137 23.545H242.337L231.916 0.18468H229.715L226.23 8.0076C226.519 8.28469 226.699 8.67423 226.699 9.10794C226.699 9.95128 226.017 10.634 225.173 10.634C225.137 10.634 225.101 10.634 225.065 10.634H225.057ZM234.045 17.3887H230.037C229.824 17.975 229.262 18.3967 228.599 18.3967C227.936 18.3967 227.378 17.979 227.161 17.3887H224.246L224.712 16.3445H227.161C227.374 15.7582 227.936 15.3366 228.599 15.3366C229.262 15.3366 229.82 15.7542 230.037 16.3445H233.583L234.049 17.3887H234.045ZM218.166 23.541L224.105 10.2083C223.816 9.9312 223.635 9.54166 223.635 9.10794C223.635 8.26461 224.318 7.58191 225.161 7.58191C225.198 7.58191 225.234 7.58191 225.27 7.58191L228.567 0.180664H226.366L215.957 23.537H218.158L218.166 23.541ZM224.511 9.10794C224.511 9.46937 224.804 9.76253 225.165 9.76253C225.527 9.76253 225.82 9.46937 225.82 9.10794C225.82 8.74652 225.527 8.45336 225.165 8.45336C224.804 8.45336 224.511 8.74652 224.511 9.10794ZM228.599 16.212C228.238 16.212 227.944 16.5052 227.944 16.8666C227.944 17.228 228.238 17.5212 228.599 17.5212C228.96 17.5212 229.254 17.228 229.254 16.8666C229.254 16.5052 228.96 16.212 228.599 16.212ZM237.486 18.2601C237.125 18.2601 236.832 18.5533 236.832 18.9147C236.832 19.2761 237.125 19.5693 237.486 19.5693C237.848 19.5693 238.141 19.2761 238.141 18.9147C238.141 18.5533 237.848 18.2601 237.486 18.2601ZM246.638 9.04771C246.638 9.40913 246.931 9.70229 247.293 9.70229C247.654 9.70229 247.947 9.40913 247.947 9.04771C247.947 8.68628 247.654 8.39312 247.293 8.39312C246.931 8.39312 246.638 8.68628 246.638 9.04771ZM245.767 9.04771C245.767 8.3891 246.184 7.82688 246.775 7.61002V0.18468H244.594V23.541H246.775V10.4854C246.188 10.2725 245.767 9.71032 245.767 9.04771ZM247.815 0.18468V7.61002C248.401 7.82287 248.823 8.38509 248.823 9.04771C248.823 9.71032 248.405 10.2685 247.815 10.4854V23.541H249.996V0.18468H247.815Z" fill="url(#paint0_linear_366_349)"/>
<mask id="mask0_366_349" style="mask-type:luminance" maskUnits="userSpaceOnUse" x="215" y="0" width="35" height="24">
<path d="M232.607 14.1639H225.683L229.145 6.39723L232.607 14.1639ZM225.057 10.634L219.306 23.541H221.507L223.278 19.5693H235.02L236.791 23.541H238.992L237.611 20.4407C237.57 20.4407 237.534 20.4447 237.494 20.4447C236.651 20.4447 235.968 19.762 235.968 18.9187C235.968 18.485 236.149 18.0914 236.442 17.8144L230.254 3.93149L230.824 2.65444L237.394 17.3927C237.43 17.3927 237.462 17.3927 237.498 17.3927C238.341 17.3927 239.024 18.0754 239.024 18.9187C239.024 19.3484 238.847 19.738 238.562 20.015L240.137 23.545H242.337L231.916 0.18468H229.715L226.23 8.0076C226.519 8.28469 226.699 8.67423 226.699 9.10794C226.699 9.95128 226.017 10.634 225.173 10.634C225.137 10.634 225.101 10.634 225.065 10.634H225.057ZM234.045 17.3887H230.037C229.824 17.975 229.262 18.3967 228.599 18.3967C227.936 18.3967 227.378 17.979 227.161 17.3887H224.246L224.712 16.3445H227.161C227.374 15.7582 227.936 15.3366 228.599 15.3366C229.262 15.3366 229.82 15.7542 230.037 16.3445H233.583L234.049 17.3887H234.045ZM218.166 23.541L224.105 10.2083C223.816 9.9312 223.635 9.54166 223.635 9.10794C223.635 8.26461 224.318 7.58191 225.161 7.58191C225.198 7.58191 225.234 7.58191 225.27 7.58191L228.567 0.180664H226.366L215.957 23.537H218.158L218.166 23.541ZM224.511 9.10794C224.511 9.46937 224.804 9.76253 225.165 9.76253C225.527 9.76253 225.82 9.46937 225.82 9.10794C225.82 8.74652 225.527 8.45336 225.165 8.45336C224.804 8.45336 224.511 8.74652 224.511 9.10794ZM228.599 16.212C228.238 16.212 227.944 16.5052 227.944 16.8666C227.944 17.228 228.238 17.5212 228.599 17.5212C228.96 17.5212 229.254 17.228 229.254 16.8666C229.254 16.5052 228.96 16.212 228.599 16.212ZM237.486 18.2601C237.125 18.2601 236.832 18.5533 236.832 18.9147C236.832 19.2761 237.125 19.5693 237.486 19.5693C237.848 19.5693 238.141 19.2761 238.141 18.9147C238.141 18.5533 237.848 18.2601 237.486 18.2601ZM246.638 9.04771C246.638 9.40913 246.931 9.70229 247.293 9.70229C247.654 9.70229 247.947 9.40913 247.947 9.04771C247.947 8.68628 247.654 8.39312 247.293 8.39312C246.931 8.39312 246.638 8.68628 246.638 9.04771ZM245.767 9.04771C245.767 8.3891 246.184 7.82688 246.775 7.61002V0.18468H244.594V23.541H246.775V10.4854C246.188 10.2725 245.767 9.71032 245.767 9.04771ZM247.815 0.18468V7.61002C248.401 7.82287 248.823 8.38509 248.823 9.04771C248.823 9.71032 248.405 10.2685 247.815 10.4854V23.541H249.996V0.18468H247.815Z" fill="white"/>
</mask>
<g mask="url(#mask0_366_349)">
<path d="M249.995 0.18457H215.965V23.5409H249.995V0.18457Z" fill="url(#paint1_linear_366_349)"/>
</g>
<g style="mix-blend-mode:overlay">
<path fill-rule="evenodd" clip-rule="evenodd" d="M232.607 14.1639H225.683L229.145 6.39723L232.607 14.1639ZM225.057 10.634L219.306 23.541H221.507L223.278 19.5693H235.02L236.791 23.541H238.992L237.611 20.4407C237.57 20.4407 237.534 20.4447 237.494 20.4447C236.651 20.4447 235.968 19.762 235.968 18.9187C235.968 18.485 236.149 18.0914 236.442 17.8144L230.254 3.93149L230.824 2.65444L237.394 17.3927C237.43 17.3927 237.462 17.3927 237.498 17.3927C238.341 17.3927 239.024 18.0754 239.024 18.9187C239.024 19.3484 238.847 19.738 238.562 20.015L240.137 23.545H242.337L231.916 0.18468H229.715L226.23 8.0076C226.519 8.28469 226.699 8.67423 226.699 9.10794C226.699 9.95128 226.017 10.634 225.173 10.634C225.137 10.634 225.101 10.634 225.065 10.634H225.057ZM234.045 17.3887H230.037C229.824 17.975 229.262 18.3967 228.599 18.3967C227.936 18.3967 227.378 17.979 227.161 17.3887H224.246L224.712 16.3445H227.161C227.374 15.7582 227.936 15.3366 228.599 15.3366C229.262 15.3366 229.82 15.7542 230.037 16.3445H233.583L234.049 17.3887H234.045ZM218.166 23.541L224.105 10.2083C223.816 9.9312 223.635 9.54166 223.635 9.10794C223.635 8.26461 224.318 7.58191 225.161 7.58191C225.198 7.58191 225.234 7.58191 225.27 7.58191L228.567 0.180664H226.366L215.957 23.537H218.158L218.166 23.541ZM224.511 9.10794C224.511 9.46937 224.804 9.76253 225.165 9.76253C225.527 9.76253 225.82 9.46937 225.82 9.10794C225.82 8.74652 225.527 8.45336 225.165 8.45336C224.804 8.45336 224.511 8.74652 224.511 9.10794ZM228.599 16.212C228.238 16.212 227.944 16.5052 227.944 16.8666C227.944 17.228 228.238 17.5212 228.599 17.5212C228.96 17.5212 229.254 17.228 229.254 16.8666C229.254 16.5052 228.96 16.212 228.599 16.212ZM237.486 18.2601C237.125 18.2601 236.832 18.5533 236.832 18.9147C236.832 19.2761 237.125 19.5693 237.486 19.5693C237.848 19.5693 238.141 19.2761 238.141 18.9147C238.141 18.5533 237.848 18.2601 237.486 18.2601ZM246.638 9.04771C246.638 9.40913 246.931 9.70229 247.293 9.70229C247.654 9.70229 247.947 9.40913 247.947 9.04771C247.947 8.68628 247.654 8.39312 247.293 8.39312C246.931 8.39312 246.638 8.68628 246.638 9.04771ZM245.767 9.04771C245.767 8.3891 246.184 7.82688 246.775 7.61002V0.18468H244.594V23.541H246.775V10.4854C246.188 10.2725 245.767 9.71032 245.767 9.04771ZM247.815 0.18468V7.61002C248.401 7.82287 248.823 8.38509 248.823 9.04771C248.823 9.71032 248.405 10.2685 247.815 10.4854V23.541H249.996V0.18468H247.815Z" fill="url(#paint2_linear_366_349)"/>
<mask id="mask1_366_349" style="mask-type:luminance" maskUnits="userSpaceOnUse" x="215" y="0" width="35" height="24">
<path d="M232.607 14.1639H225.683L229.145 6.39723L232.607 14.1639ZM225.057 10.634L219.306 23.541H221.507L223.278 19.5693H235.02L236.791 23.541H238.992L237.611 20.4407C237.57 20.4407 237.534 20.4447 237.494 20.4447C236.651 20.4447 235.968 19.762 235.968 18.9187C235.968 18.485 236.149 18.0914 236.442 17.8144L230.254 3.93149L230.824 2.65444L237.394 17.3927C237.43 17.3927 237.462 17.3927 237.498 17.3927C238.341 17.3927 239.024 18.0754 239.024 18.9187C239.024 19.3484 238.847 19.738 238.562 20.015L240.137 23.545H242.337L231.916 0.18468H229.715L226.23 8.0076C226.519 8.28469 226.699 8.67423 226.699 9.10794C226.699 9.95128 226.017 10.634 225.173 10.634C225.137 10.634 225.101 10.634 225.065 10.634H225.057ZM234.045 17.3887H230.037C229.824 17.975 229.262 18.3967 228.599 18.3967C227.936 18.3967 227.378 17.979 227.161 17.3887H224.246L224.712 16.3445H227.161C227.374 15.7582 227.936 15.3366 228.599 15.3366C229.262 15.3366 229.82 15.7542 230.037 16.3445H233.583L234.049 17.3887H234.045ZM218.166 23.541L224.105 10.2083C223.816 9.9312 223.635 9.54166 223.635 9.10794C223.635 8.26461 224.318 7.58191 225.161 7.58191C225.198 7.58191 225.234 7.58191 225.27 7.58191L228.567 0.180664H226.366L215.957 23.537H218.158L218.166 23.541ZM224.511 9.10794C224.511 9.46937 224.804 9.76253 225.165 9.76253C225.527 9.76253 225.82 9.46937 225.82 9.10794C225.82 8.74652 225.527 8.45336 225.165 8.45336C224.804 8.45336 224.511 8.74652 224.511 9.10794ZM228.599 16.212C228.238 16.212 227.944 16.5052 227.944 16.8666C227.944 17.228 228.238 17.5212 228.599 17.5212C228.96 17.5212 229.254 17.228 229.254 16.8666C229.254 16.5052 228.96 16.212 228.599 16.212ZM237.486 18.2601C237.125 18.2601 236.832 18.5533 236.832 18.9147C236.832 19.2761 237.125 19.5693 237.486 19.5693C237.848 19.5693 238.141 19.2761 238.141 18.9147C238.141 18.5533 237.848 18.2601 237.486 18.2601ZM246.638 9.04771C246.638 9.40913 246.931 9.70229 247.293 9.70229C247.654 9.70229 247.947 9.40913 247.947 9.04771C247.947 8.68628 247.654 8.39312 247.293 8.39312C246.931 8.39312 246.638 8.68628 246.638 9.04771ZM245.767 9.04771C245.767 8.3891 246.184 7.82688 246.775 7.61002V0.18468H244.594V23.541H246.775V10.4854C246.188 10.2725 245.767 9.71032 245.767 9.04771ZM247.815 0.18468V7.61002C248.401 7.82287 248.823 8.38509 248.823 9.04771C248.823 9.71032 248.405 10.2685 247.815 10.4854V23.541H249.996V0.18468H247.815Z" fill="white"/>
</mask>
<g mask="url(#mask1_366_349)">
<path d="M249.995 0.18457H215.965V23.5409H249.995V0.18457Z" fill="url(#paint3_linear_366_349)"/>
</g>
</g>
<path d="M9.85495 23.5414H0V0.666992H9.85495C11.2725 0.687072 12.4532 0.851722 13.3929 1.16496C14.9953 1.69104 16.2964 2.65886 17.2883 4.06843C18.0835 5.20493 18.6296 6.4378 18.9188 7.76303C19.2079 9.08827 19.3525 10.3493 19.3525 11.55C19.3525 14.59 18.7421 17.1682 17.5212 19.2765C15.8667 22.1198 13.3086 23.5454 9.85495 23.5454V23.5414ZM13.405 6.50205C12.6701 5.26115 11.2163 4.63869 9.04374 4.63869H4.63833V19.5657H9.04374C11.3007 19.5657 12.8709 18.4533 13.7624 16.2285C14.2483 15.0077 14.4933 13.5539 14.4933 11.8673C14.4933 9.53805 14.1318 7.75099 13.405 6.49804V6.50205Z" fill="white"/>
<path d="M31.0987 10.7064C29.3197 10.7064 28.123 11.2847 27.5126 12.4453C27.1712 13.0959 26.9985 14.0998 26.9985 15.4572V23.5412H22.5449V6.62631H26.7656V9.57396C27.4483 8.4455 28.0426 7.67445 28.5486 7.26081C29.3759 6.56607 30.4522 6.2207 31.7774 6.2207C31.8617 6.2207 31.93 6.2207 31.9862 6.22874C32.0425 6.23275 32.171 6.24078 32.3677 6.25283V10.7827C32.0866 10.7506 31.8417 10.7305 31.6248 10.7225C31.4079 10.7104 31.2313 10.7064 31.0987 10.7064Z" fill="white"/>
<path d="M49.0657 8.7667C50.4914 10.5578 51.2062 12.6701 51.2062 15.1118C51.2062 17.5534 50.4914 19.718 49.0657 21.4809C47.6361 23.2439 45.4715 24.1274 42.564 24.1274C39.6565 24.1274 37.488 23.2439 36.0623 21.4809C34.6367 19.718 33.9219 17.5936 33.9219 15.1118C33.9219 12.63 34.6367 10.5538 36.0623 8.7667C37.488 6.97562 39.6565 6.08008 42.564 6.08008C45.4715 6.08008 47.6361 6.97562 49.0657 8.7667ZM42.548 9.82287C41.2549 9.82287 40.2589 10.2807 39.5602 11.1963C38.8614 12.1119 38.512 13.4171 38.512 15.1158C38.512 16.8145 38.8614 18.1197 39.5602 19.0433C40.2589 19.9629 41.2549 20.4248 42.548 20.4248C43.8411 20.4248 44.833 19.9629 45.5277 19.0433C46.2225 18.1237 46.5679 16.8145 46.5679 15.1158C46.5679 13.4171 46.2225 12.1119 45.5277 11.1963C44.833 10.2807 43.8411 9.82287 42.548 9.82287Z" fill="white"/>
<path d="M68.5386 8.44158C69.904 9.89934 70.5867 12.0398 70.5867 14.867C70.5867 17.8468 69.916 20.1157 68.5787 21.6779C67.2374 23.2401 65.5146 24.0191 63.4023 24.0191C62.057 24.0191 60.9405 23.6818 60.049 23.0112C59.5631 22.6377 59.0852 22.0955 58.6234 21.3807V30.1956H54.2461V6.62641H58.4828V9.12428C58.9567 8.38937 59.4667 7.81109 60.0049 7.38541C60.9887 6.63042 62.1574 6.25293 63.5107 6.25293C65.4865 6.25293 67.1611 6.98382 68.5386 8.44158ZM66.0287 15.0838C66.0287 13.7787 65.7315 12.6261 65.1371 11.6221C64.5428 10.6182 63.579 10.1162 62.2417 10.1162C60.6394 10.1162 59.535 10.8752 58.9366 12.3972C58.6274 13.2044 58.4708 14.2285 58.4708 15.4694C58.4708 17.4331 58.9929 18.8146 60.037 19.6137C60.6554 20.0796 61.3903 20.3125 62.2417 20.3125C63.4746 20.3125 64.4103 19.8386 65.0568 18.8828C65.7034 17.9311 66.0287 16.6621 66.0287 15.0798V15.0838Z" fill="white"/>
<path d="M82.4463 20.2361C83.5748 20.2361 84.4904 20.1116 85.1931 19.8626C86.5264 19.3887 87.1931 18.5012 87.1931 17.2081C87.1931 16.4531 86.8637 15.8668 86.2011 15.4532C85.5385 15.0516 84.4984 14.6942 83.0808 14.3809L80.6592 13.8388C78.2818 13.3007 76.6353 12.7184 75.7237 12.0839C74.1816 11.0277 73.4106 9.37717 73.4106 7.1323C73.4106 5.0842 74.1535 3.38147 75.6434 2.02812C77.1333 0.674776 79.3219 -0.00390625 82.2053 -0.00390625C84.6149 -0.00390625 86.671 0.634617 88.3737 1.91166C90.0764 3.18871 90.968 5.04404 91.0523 7.47365H86.4581C86.3738 6.0962 85.7755 5.12035 84.659 4.54206C83.9121 4.16055 82.9884 3.96779 81.8801 3.96779C80.6472 3.96779 79.6673 4.21677 78.9324 4.71073C78.1975 5.20869 77.8321 5.89942 77.8321 6.79095C77.8321 7.61019 78.1935 8.21658 78.9163 8.62218C79.3822 8.89125 80.3741 9.2085 81.8961 9.56993L85.8397 10.5177C87.5665 10.9313 88.8717 11.4855 89.7512 12.1762C91.1166 13.2525 91.7993 14.8106 91.7993 16.8467C91.7993 18.8827 91.0001 20.6698 89.4018 22.0513C87.8035 23.4327 85.5465 24.1234 82.627 24.1234C79.7075 24.1234 77.306 23.4448 75.5992 22.0834C73.8925 20.722 73.0371 18.8546 73.0371 16.4732H77.5991C77.7437 17.5173 78.0288 18.3004 78.4505 18.8145C79.2256 19.7542 80.5548 20.2281 82.4383 20.2281L82.4463 20.2361Z" fill="white"/>
<path d="M109.461 18.5739C109.348 19.5778 108.826 20.5979 107.895 21.6299C106.445 23.2764 104.417 24.0957 101.811 24.0957C99.6581 24.0957 97.7626 23.4009 96.1161 22.0155C94.4696 20.63 93.6504 18.3731 93.6504 15.2487C93.6504 12.3212 94.3933 10.0763 95.8752 8.5141C97.3611 6.95193 99.2847 6.17285 101.654 6.17285C103.06 6.17285 104.329 6.4379 105.457 6.96398C106.586 7.49006 107.517 8.32536 108.252 9.46185C108.915 10.4658 109.344 11.6304 109.541 12.9516C109.654 13.7267 109.702 14.8431 109.682 16.3049H98.104C98.1642 18.0036 98.6983 19.1923 99.7023 19.875C100.313 20.3007 101.048 20.5095 101.907 20.5095C102.819 20.5095 103.558 20.2525 104.128 19.7344C104.437 19.4533 104.714 19.0678 104.951 18.5698H109.465L109.461 18.5739ZM105.084 13.3934C105.011 12.2248 104.658 11.3373 104.019 10.7309C103.385 10.1245 102.594 9.82328 101.654 9.82328C100.63 9.82328 99.8348 10.1445 99.2726 10.7871C98.7104 11.4296 98.353 12.2971 98.2084 13.3934H105.084Z" fill="white"/>
<path d="M121.159 10.7064C119.38 10.7064 118.184 11.2847 117.573 12.4453C117.232 13.0959 117.059 14.0998 117.059 15.4572V23.5412H112.605V6.62631H116.826V9.57396C117.509 8.4455 118.103 7.67445 118.609 7.26081C119.436 6.56607 120.513 6.2207 121.838 6.2207C121.922 6.2207 121.991 6.2207 122.047 6.22874C122.103 6.23275 122.232 6.24078 122.428 6.25283V10.7827C122.147 10.7506 121.902 10.7305 121.685 10.7225C121.469 10.7104 121.292 10.7064 121.159 10.7064Z" fill="white"/>
<path d="M123.363 6.62598H128.327L131.849 19.1033L135.447 6.62598H140.194L134.094 23.5408H129.423L123.355 6.62598H123.363Z" fill="white"/>
<path d="M147.245 0.526367V4.60649H142.76V0.526367H147.245ZM147.245 6.62647V23.5413H142.76V6.62647H147.245Z" fill="white"/>
<path d="M166.16 12.6941H161.63C161.546 12.0636 161.337 11.4933 160.996 10.9873C160.498 10.3046 159.727 9.96327 158.682 9.96327C157.192 9.96327 156.172 10.7022 155.626 12.1841C155.337 12.9712 155.193 14.0153 155.193 15.3204C155.193 16.6256 155.337 17.5613 155.626 18.3163C156.152 19.7218 157.148 20.4286 158.606 20.4286C159.642 20.4286 160.377 20.1475 160.811 19.5893C161.244 19.0311 161.51 18.3083 161.602 17.4167H166.116C166.011 18.762 165.525 20.0351 164.658 21.2358C163.273 23.1715 161.216 24.1393 158.498 24.1393C155.779 24.1393 153.775 23.3321 152.494 21.7177C151.213 20.1033 150.57 18.0111 150.57 15.4329C150.57 12.5254 151.277 10.2645 152.695 8.65009C154.112 7.03571 156.068 6.22852 158.562 6.22852C160.682 6.22852 162.417 6.7064 163.766 7.65415C165.116 8.60591 165.915 10.2886 166.164 12.6981L166.16 12.6941Z" fill="white"/>
<path d="M173.751 0.526367V4.60649H169.266V0.526367H173.751ZM173.751 6.62647V23.5413H169.266V6.62647H173.751Z" fill="white"/>
<path d="M185.992 9.89924C184.49 9.89924 183.462 10.5337 182.904 11.8068C182.614 12.4774 182.47 13.3368 182.47 14.381V23.5371H178.064V6.65843H182.333V9.12418C182.904 8.25675 183.442 7.63027 183.948 7.24475C184.859 6.56205 186.012 6.2207 187.409 6.2207C189.156 6.2207 190.59 6.67851 191.698 7.59413C192.811 8.50975 193.365 10.0277 193.365 12.1481V23.5371H188.835V13.2485C188.835 12.357 188.715 11.6743 188.478 11.2004C188.044 10.333 187.217 9.89522 185.996 9.89522L185.992 9.89924Z" fill="white"/>
<path d="M202.223 26.5048C202.697 26.9063 203.5 27.1112 204.629 27.1112C206.223 27.1112 207.287 26.577 207.825 25.5128C208.179 24.8301 208.352 23.6816 208.352 22.0672V20.9829C207.926 21.7058 207.472 22.2519 206.986 22.6134C206.107 23.284 204.962 23.6214 203.557 23.6214C201.384 23.6214 199.649 22.8583 198.352 21.3323C197.055 19.8063 196.404 17.7381 196.404 15.1318C196.404 12.5255 197.031 10.5055 198.284 8.79477C199.537 7.08401 201.312 6.22461 203.605 6.22461C204.452 6.22461 205.191 6.35312 205.826 6.61415C206.902 7.05991 207.769 7.87513 208.432 9.06785V6.63021H212.729V22.6736C212.729 24.8582 212.359 26.5007 211.628 27.6091C210.367 29.5126 207.946 30.4644 204.368 30.4644C202.207 30.4644 200.44 30.0387 199.075 29.1914C197.709 28.344 196.954 27.075 196.81 25.3883H201.621C201.745 25.9064 201.946 26.2759 202.227 26.5048H202.223ZM201.48 17.7662C202.079 19.1919 203.155 19.9067 204.709 19.9067C205.745 19.9067 206.617 19.5171 207.331 18.734C208.046 17.955 208.404 16.71 208.404 15.0033C208.404 13.401 208.066 12.1801 207.388 11.3408C206.709 10.5015 205.801 10.0839 204.665 10.0839C203.115 10.0839 202.043 10.8147 201.452 12.2725C201.143 13.0476 200.986 14.0034 200.986 15.1439C200.986 16.1277 201.151 16.9992 201.484 17.7662H201.48Z" fill="white"/>
</g>
<defs>
<linearGradient id="paint0_linear_366_349" x1="236.968" y1="-0.0161138" x2="232.306" y2="27.5247" gradientUnits="userSpaceOnUse">
<stop stop-color="#00FF98"/>
<stop offset="1" stop-color="#0043FF"/>
</linearGradient>
<linearGradient id="paint1_linear_366_349" x1="235.048" y1="-0.341509" x2="230.386" y2="27.1993" gradientUnits="userSpaceOnUse">
<stop stop-color="#00FF98"/>
<stop offset="1" stop-color="#0043FF"/>
</linearGradient>
<linearGradient id="paint2_linear_366_349" x1="236.968" y1="-0.0161138" x2="232.306" y2="27.5247" gradientUnits="userSpaceOnUse">
<stop stop-color="#00FF98"/>
<stop offset="1" stop-color="#0043FF"/>
</linearGradient>
<linearGradient id="paint3_linear_366_349" x1="235.048" y1="-0.341509" x2="230.386" y2="27.1993" gradientUnits="userSpaceOnUse">
<stop stop-color="#00FF98"/>
<stop offset="1" stop-color="#0043FF"/>
</linearGradient>
<clipPath id="clip0_366_349">
<rect width="250" height="30.4604" fill="white"/>
</clipPath>
</defs>
</svg>
