<svg width="24" height="18" viewBox="0 0 24 18" fill="none" xmlns="http://www.w3.org/2000/svg">
<path d="M23.2996 1.17614C23.4849 1.37159 23.585 1.63265 23.5779 1.90189C23.5707 2.17112 23.4569 2.42649 23.2615 2.61182L7.82396 17.2368C7.72662 17.3291 7.61196 17.4013 7.48659 17.449C7.36123 17.4968 7.22764 17.5193 7.09355 17.5151C6.95945 17.511 6.82751 17.4803 6.70534 17.4248C6.58317 17.3694 6.4732 17.2903 6.38177 17.1921L0.897393 11.3015C0.713796 11.1043 0.616046 10.8423 0.625646 10.5731C0.630399 10.4397 0.661364 10.3087 0.716773 10.1873C0.772182 10.066 0.85095 9.95673 0.94858 9.86582C1.04621 9.77492 1.16079 9.70413 1.28578 9.6575C1.41076 9.61087 1.54371 9.58932 1.67703 9.59408C1.94627 9.60368 2.20067 9.71984 2.38427 9.91701L7.16989 15.0577L21.864 1.13795C22.0594 0.952648 22.3205 0.852573 22.5897 0.859735C22.8589 0.866896 23.1143 0.980707 23.2996 1.17614Z" fill="#3875FF"/>
</svg>
